Coordinates
version=1
nRows=14
nColumns=38
inDegrees=no

Units are S.I. units (second, meters, Newtons, ...)
If the header above contains a line with 'inDegrees', this indicates whether rotational values are in degrees (yes) or radians (no).

endheader
time	pelvis_tilt	pelvis_list	pelvis_rotation	pelvis_tx	pelvis_ty	pelvis_tz	hip_flexion_r	hip_adduction_r	hip_rotation_r	knee_angle_r	ankle_angle_r	subtalar_angle_r	mtp_angle_r	hip_flexion_l	hip_adduction_l	hip_rotation_l	knee_angle_l	ankle_angle_l	subtalar_angle_l	mtp_angle_l	lumbar_extension	lumbar_bending	lumbar_rotation	arm_flex_r	arm_add_r	arm_rot_r	elbow_flex_r	pro_sup_r	wrist_flex_r	wrist_dev_r	arm_flex_l	arm_add_l	arm_rot_l	elbow_flex_l	pro_sup_l	wrist_flex_l	wrist_dev_l
10	2.91079	1.25	-1.47148	0.7278	1.93137	0.95383	-0.311553	0.025931	-0.149514	0.220148	0.0299123	0	0	-0.498857	0.00298892	-0.372872	0	0.00336182	0	0	-0.413556	0.0145929	0.226291	0.135504	-0.254237	0.640794	0.371925	1.02681	0	0	0.0938175	-0.213027	0.432804	0.590484	1.20492	0	0
10.01	2.91411	1.24992	-1.47457	0.727714	1.93098	0.953809	-0.310753	0.0248218	-0.149999	0.221188	0.0304624	0	0	-0.498521	0.00395549	-0.372357	0	0.00297378	0	0	-0.413651	0.0130574	0.224658	0.138863	-0.254227	0.641551	0.375336	1.03496	0	0	0.0998117	-0.213074	0.434561	0.599686	1.2122	0	0
10.02	2.9154	1.2498	-1.47574	0.727567	1.93079	0.953801	-0.31038	0.0243589	-0.150146	0.221704	0.0307139	0	0	-0.498451	0.00436336	-0.371631	0	0.00281536	0	0	-0.413297	0.0124926	0.223347	0.141468	-0.253018	0.630987	0.376056	1.06896	0	0	0.104479	-0.212646	0.433693	0.607532	1.23095	0	0
10.03	2.91697	1.24953	-1.47774	0.727571	1.93048	0.953853	-0.309836	0.023783	-0.149667	0.22262	0.0308999	0	0	-0.498487	0.00499823	-0.371339	0	0.00254756	0	0	-0.413186	0.0115123	0.222311	0.1441	-0.252895	0.629336	0.378983	1.08079	0	0	0.10876	-0.213098	0.435436	0.615156	1.24201	0	0
10.04	2.91912	1.24948	-1.47939	0.727391	1.93019	0.953889	-0.308862	0.0229794	-0.150162	0.224111	0.0312804	0	0	-0.498193	0.0055217	-0.370462	0	0.00225201	0	0	-0.412752	0.0108218	0.220239	0.146093	-0.253095	0.628116	0.382914	1.08564	0	0	0.112546	-0.213265	0.436129	0.62145	1.25525	0	0
10.05	2.9217	1.24945	-1.48064	0.727084	1.92986	0.953905	-0.307892	0.0220806	-0.151365	0.225615	0.0317377	0	0	-0.49773	0.00587965	-0.36933	0	0.00204291	0	0	-0.412875	0.0103895	0.217529	0.147749	-0.254488	0.632083	0.388834	1.07406	0	0	0.115995	-0.214211	0.440472	0.629164	1.25221	0	0
10.06	2.92187	1.2495	-1.48091	0.726976	1.92956	0.953935	-0.307654	0.0219945	-0.150842	0.225168	0.0312691	0	0	-0.497311	0.00594525	-0.369358	0	0.00190792	0	0	-0.412846	0.0102031	0.216337	0.148929	-0.253753	0.622349	0.391378	1.08821	0	0	0.118643	-0.213697	0.436561	0.634321	1.2788	0	0
10.07	2.9233	1.24935	-1.48197	0.726831	1.92931	0.953972	-0.308	0.0216517	-0.151143	0.224304	0.0309348	0	0	-0.497124	0.00629933	-0.368904	0	0.00172601	0	0	-0.41278	0.00972621	0.21468	0.149773	-0.2539	0.619499	0.395298	1.08645	0	0	0.121153	-0.213912	0.436648	0.640875	1.2866	0	0
10.08	2.92477	1.24913	-1.48286	0.726652	1.92906	0.954013	-0.308316	0.0213203	-0.151573	0.223731	0.0308486	0	0	-0.496998	0.00659655	-0.36824	0	0.00152186	0	0	-0.412717	0.00929057	0.212723	0.150357	-0.254015	0.61704	0.399107	1.08247	0	0	0.123362	-0.213825	0.435731	0.647163	1.29362	0	0
10.09	2.92556	1.24895	-1.48312	0.726485	1.92876	0.954059	-0.308744	0.0212337	-0.151479	0.222676	0.0310325	0	0	-0.496792	0.00671213	-0.367803	0	0.00131199	0	0	-0.4126	0.00900122	0.210836	0.150794	-0.25362	0.612021	0.401896	1.08175	0	0	0.125423	-0.214072	0.436918	0.653113	1.29118	0	0
10.1	2.92555	1.24867	-1.48315	0.726335	1.92851	0.9541	-0.309022	0.0211897	-0.150582	0.22185	0.0316361	0	0	-0.496737	0.00679331	-0.368025	0	0.00104813	0	0	-0.412598	0.00895257	0.209444	0.151196	-0.253899	0.611536	0.405311	1.07166	0	0	0.127089	-0.213346	0.433848	0.657146	1.30333	0	0
10.11	2.92582	1.24861	-1.4836	0.726234	1.92824	0.954131	-0.308884	0.0209681	-0.150008	0.221514	0.0316313	0	0	-0.496498	0.00702859	-0.368113	0	0.000818682	0	0	-0.412388	0.00865018	0.208318	0.151153	-0.253431	0.609045	0.407936	1.06304	0	0	0.128563	-0.213063	0.432885	0.661103	1.30609	0	0
10.12	2.92598	1.24838	-1.48389	0.726119	1.92796	0.95415	-0.309167	0.0208887	-0.149754	0.220743	0.031024	0	0	-0.496425	0.00720517	-0.36812	0	0.000641201	0	0	-0.412398	0.00850542	0.207207	0.15092	-0.253237	0.607023	0.410599	1.05554	0	0	0.129637	-0.212737	0.431991	0.664775	1.3067	0	0
10.13	2.92613	1.24814	-1.48434	0.726019	1.92767	0.954155	-0.309276	0.0207516	-0.149715	0.220345	0.0305902	0	0	-0.496372	0.00748124	-0.368338	0	0.000534627	0	0	-0.412463	0.00832327	0.206295	0.150766	-0.253286	0.605491	0.412567	1.05174	0	0	0.130485	-0.212302	0.431076	0.667764	1.306	0	0
